<svg width="58" height="58" viewBox="0 0 58 58" fill="none" xmlns="http://www.w3.org/2000/svg">
<path d="M41.2159 32.075H53.578C53.7082 31.034 53.7862 29.9799 53.7862 28.9064C53.7862 27.8328 53.7082 26.7788 53.578 25.7378H34.6055V32.075H41.2159Z" fill="#56BDBA" style="fill:#56BDBA;fill:color(display-p3 0.3373 0.7412 0.7294);fill-opacity:1;"/>
<path d="M28.334 10.3567C28.5227 10.3567 28.7048 10.3437 28.8935 10.3437C29.1798 10.3437 29.4661 10.3502 29.7524 10.3632C29.8369 10.3632 29.9215 10.3697 29.9996 10.3762C30.2143 10.3893 30.4225 10.4023 30.6307 10.4218C30.7088 10.4283 30.7934 10.4348 30.8715 10.4478C31.1512 10.4803 31.4245 10.5129 31.6978 10.5519C31.7238 10.5519 31.7498 10.5584 31.7758 10.5649C32.0231 10.604 32.2703 10.6495 32.5176 10.6951C32.6021 10.7146 32.6867 10.7276 32.7778 10.7471C32.973 10.7861 33.1682 10.8317 33.3569 10.8837C33.4415 10.9033 33.5195 10.9228 33.6041 10.9423C33.8644 11.0074 34.1181 11.0854 34.3719 11.1635C34.4239 11.183 34.4825 11.2025 34.5345 11.2156C34.7362 11.2806 34.9379 11.3522 35.1396 11.4238C35.2307 11.4563 35.3218 11.4888 35.4129 11.5279C35.5821 11.5929 35.7512 11.658 35.9204 11.7296C36.005 11.7686 36.0961 11.8011 36.1807 11.8402C36.4149 11.9378 36.6426 12.0419 36.8703 12.1525C36.9484 12.1915 37.0265 12.2306 37.1111 12.2696C37.2672 12.3477 37.4234 12.4257 37.5795 12.5103C37.6836 12.5624 37.7812 12.6209 37.8788 12.673C38.0154 12.7511 38.1521 12.8291 38.2822 12.9072C38.3798 12.9658 38.4774 13.0243 38.575 13.0829C38.7767 13.2065 38.9784 13.3366 39.1736 13.4668C39.2777 13.5318 39.3753 13.6034 39.4729 13.675C39.5835 13.753 39.7006 13.8311 39.8112 13.9157C39.9218 13.9938 40.0259 14.0784 40.1365 14.1564C40.2341 14.2345 40.3317 14.3126 40.4293 14.3907C40.5399 14.4753 40.644 14.5598 40.7481 14.6509C40.9173 14.7941 41.0865 14.9372 41.2556 15.0869C41.3662 15.191 41.4768 15.2885 41.5874 15.3927C41.6655 15.4642 41.7436 15.5358 41.8152 15.6074C41.9258 15.718 42.0364 15.8286 42.147 15.9392C42.2121 16.0042 42.2771 16.0758 42.3422 16.1474C42.7196 16.5443 43.0774 16.9607 43.4222 17.3901C43.4743 17.4552 43.5198 17.5137 43.5719 17.5788C43.676 17.7154 43.7801 17.8521 43.8842 17.9952C43.9232 18.0472 43.9623 18.1058 44.0013 18.1579C44.3331 18.6263 44.6454 19.1143 44.9382 19.6153C44.9708 19.6738 45.0098 19.7324 45.0423 19.791C45.1334 19.9471 45.218 20.1098 45.3026 20.2724C45.3286 20.318 45.3481 20.3635 45.3741 20.4091C45.5628 20.7734 45.7385 21.1378 45.9012 21.5151H52.6548C52.6548 21.5021 52.6418 21.4826 52.6418 21.4696C52.5377 21.1248 52.4205 20.7864 52.2969 20.4546C52.2579 20.3375 52.2123 20.2269 52.1668 20.1163C52.0757 19.8755 51.9846 19.6413 51.887 19.4071C51.835 19.2835 51.7829 19.1533 51.7244 19.0297C51.6268 18.802 51.5227 18.5808 51.4186 18.353C51.3665 18.2359 51.308 18.1188 51.2559 18.0017C51.1258 17.7349 50.9891 17.4747 50.8525 17.2144C50.82 17.1494 50.7874 17.0843 50.7484 17.0192C50.5727 16.7004 50.3906 16.3816 50.2019 16.0693C50.1498 15.9782 50.0913 15.8936 50.0327 15.8026C49.8961 15.5813 49.7529 15.3536 49.6033 15.1389C49.5317 15.0283 49.4536 14.9177 49.3821 14.8136C49.2454 14.6119 49.1023 14.4167 48.9592 14.2215C48.8811 14.1174 48.803 14.0068 48.7249 13.9027C48.5623 13.6945 48.3996 13.4863 48.2304 13.2781C48.1654 13.2 48.1003 13.1154 48.0353 13.0373C47.801 12.7576 47.5668 12.4843 47.3196 12.211C47.2675 12.1525 47.2155 12.1004 47.1634 12.0419C46.9682 11.8272 46.7665 11.619 46.5648 11.4108C46.4737 11.3197 46.3826 11.2351 46.2915 11.144C46.1159 10.9748 45.9402 10.8057 45.758 10.6365C45.6604 10.5454 45.5628 10.4543 45.4652 10.3697C45.2766 10.2006 45.0879 10.0379 44.8927 9.87525C44.8016 9.79717 44.717 9.7256 44.6259 9.64753C44.3461 9.4133 44.0599 9.19208 43.7671 8.97087C43.7606 8.97087 43.7541 8.95785 43.7411 8.95135C43.4548 8.73664 43.162 8.52843 42.8627 8.32673C42.7651 8.26167 42.6675 8.19661 42.5699 8.13154C42.3617 7.99491 42.147 7.85177 41.9323 7.72164C41.8217 7.65007 41.7046 7.58501 41.594 7.51344C41.3792 7.38331 41.1645 7.25969 40.9498 7.14258C40.8392 7.08402 40.7286 7.01895 40.618 6.9604C40.3577 6.81726 40.091 6.68062 39.8242 6.5505C39.7592 6.51796 39.6941 6.48543 39.629 6.4529C39.2972 6.29024 38.9589 6.14059 38.6205 5.99745C38.5229 5.95842 38.4319 5.91938 38.3343 5.88034C38.0805 5.77624 37.8333 5.67864 37.5795 5.58105C37.4559 5.5355 37.3323 5.48996 37.2087 5.44441C36.9744 5.35983 36.7337 5.28175 36.4995 5.20368C36.3758 5.16464 36.2457 5.1256 36.1221 5.08656C35.8618 5.00849 35.5951 4.93041 35.3283 4.85884C35.2307 4.83282 35.1266 4.80028 35.029 4.77426C34.6647 4.68317 34.2938 4.59859 33.9229 4.52051C33.8514 4.5075 33.7798 4.49448 33.7017 4.48147C33.4024 4.42291 33.0966 4.36436 32.7973 4.31881C32.6672 4.29929 32.5371 4.27977 32.4135 4.26025C32.1597 4.22122 31.8995 4.18868 31.6392 4.16266C31.5026 4.14965 31.3659 4.13013 31.2293 4.11711C30.9625 4.09109 30.6958 4.07157 30.4225 4.05856C30.2989 4.05205 30.1753 4.03904 30.0517 4.03253C29.6613 4.01301 29.2709 4 28.874 4C28.6853 4 28.5031 4.01301 28.3145 4.01301V10.3502L28.334 10.3567Z" fill="#56BDBA" style="fill:#56BDBA;fill:color(display-p3 0.3373 0.7412 0.7294);fill-opacity:1;"/>
<path d="M30.065 53.7737C30.1886 53.7737 30.3122 53.7607 30.4358 53.7477C30.7026 53.7282 30.9694 53.7086 31.2361 53.6891C31.3728 53.6761 31.5094 53.6631 31.6525 53.6436C31.9128 53.6176 32.1665 53.585 32.4268 53.546C32.5569 53.5265 32.6871 53.5135 32.8107 53.4874C33.1165 53.4419 33.4158 53.3833 33.7216 53.3248C33.7931 53.3118 33.8647 53.2987 33.9428 53.2857C34.3136 53.2077 34.6845 53.1231 35.0489 53.032C35.1465 53.006 35.2506 52.9799 35.3482 52.9474C35.6149 52.8758 35.8752 52.8043 36.1419 52.7197C36.2721 52.6806 36.3957 52.6416 36.5193 52.6026C36.76 52.5245 36.9943 52.4464 37.2285 52.3618C37.3521 52.3163 37.4757 52.2707 37.5994 52.2252C37.8531 52.1276 38.1069 52.03 38.3541 51.9259C38.4517 51.8869 38.5493 51.8478 38.6404 51.8088C38.9787 51.6656 39.317 51.5095 39.6489 51.3533C39.7139 51.3208 39.779 51.2883 39.8441 51.2557C40.1108 51.1256 40.3776 50.989 40.6378 50.8524C40.7484 50.7938 40.859 50.7287 40.9697 50.6702C41.1844 50.5466 41.3991 50.4294 41.6138 50.2993C41.7309 50.2277 41.8415 50.1627 41.9586 50.0911C42.1733 49.961 42.388 49.8243 42.5963 49.6812C42.6938 49.6161 42.7914 49.5511 42.889 49.486C43.1883 49.2843 43.4746 49.0761 43.7674 48.8614C43.7739 48.8614 43.7804 48.8484 43.7869 48.8484C44.0797 48.6272 44.366 48.3994 44.6458 48.1717C44.7368 48.1002 44.8279 48.0221 44.9125 47.944C45.1077 47.7813 45.2964 47.6187 45.4851 47.4495C45.5827 47.3584 45.6803 47.2738 45.7779 47.1828C45.96 47.0201 46.1357 46.8509 46.3049 46.6753C46.396 46.5842 46.4871 46.4996 46.5781 46.4085C46.7798 46.2003 46.9815 45.9921 47.1767 45.7774C47.2288 45.7188 47.2808 45.6668 47.3329 45.6082C47.5801 45.3415 47.8144 45.0617 48.0486 44.7819C48.1136 44.7038 48.1787 44.6193 48.2438 44.5412C48.4129 44.333 48.5756 44.1313 48.7318 43.9166C48.8098 43.8125 48.8879 43.7019 48.966 43.5978C49.1091 43.4026 49.2523 43.2074 49.3889 43.0057C49.467 42.8951 49.5385 42.7845 49.6101 42.6804C49.7533 42.4591 49.8964 42.2379 50.0395 42.0167C50.0981 41.9256 50.1566 41.841 50.2087 41.7499C50.3974 41.4376 50.5796 41.1188 50.7552 40.8C50.7943 40.7349 50.8268 40.6634 50.8593 40.5983C50.996 40.3381 51.1326 40.0778 51.2627 39.811C51.3213 39.6939 51.3733 39.5768 51.4254 39.4597C51.5295 39.2385 51.6336 39.0108 51.7312 38.7895C51.7832 38.6659 51.8418 38.5358 51.8939 38.4122C51.9914 38.1779 52.0825 37.9437 52.1736 37.703C52.2192 37.5859 52.2647 37.4753 52.3038 37.3581C52.4274 37.0263 52.538 36.688 52.6486 36.3432C52.6486 36.3301 52.6616 36.3106 52.6616 36.2976H45.908C45.7453 36.675 45.5697 37.0393 45.381 37.4037C45.3549 37.4492 45.3354 37.4948 45.3094 37.5403C45.2248 37.703 45.1337 37.8591 45.0491 38.0218C45.0166 38.0804 44.9841 38.1389 44.945 38.1975C44.6523 38.6985 44.34 39.1799 44.0081 39.6549C43.9691 39.7069 43.9301 39.7655 43.891 39.8176C43.7869 39.9542 43.6828 40.0973 43.5787 40.234C43.5332 40.299 43.4811 40.3576 43.4291 40.4226C43.0907 40.8521 42.7264 41.2685 42.3555 41.6654C42.2904 41.7369 42.2254 41.802 42.1603 41.8736C42.0497 41.9842 41.9456 42.0948 41.8285 42.1989C41.7504 42.2705 41.6789 42.3485 41.6008 42.4201C41.4902 42.5242 41.3796 42.6283 41.269 42.7259C41.0998 42.8755 40.9371 43.0187 40.7615 43.1618C40.6574 43.2529 40.5467 43.3375 40.4361 43.4221C40.3385 43.5002 40.2409 43.5782 40.1433 43.6563C40.0392 43.7409 39.9286 43.819 39.818 43.897C39.7074 43.9816 39.5903 44.0597 39.4797 44.1378C39.3821 44.2094 39.2845 44.2744 39.1804 44.346C38.9852 44.4761 38.7835 44.6062 38.5753 44.7299C38.4777 44.7884 38.3801 44.847 38.2825 44.899C38.1459 44.9771 38.0093 45.0552 37.8726 45.1333C37.775 45.1918 37.6709 45.2439 37.5733 45.2959C37.4172 45.3805 37.261 45.4586 37.1049 45.5367C37.0268 45.5757 36.9487 45.6147 36.8641 45.6538C36.6364 45.7644 36.4022 45.8685 36.168 45.9661C36.0834 46.0051 35.9923 46.0376 35.9077 46.0767C35.7385 46.1483 35.5694 46.2133 35.4002 46.2784C35.3091 46.3109 35.218 46.3499 35.1204 46.3825C34.9187 46.454 34.717 46.5256 34.5153 46.5907C34.4633 46.6102 34.4047 46.6297 34.3527 46.6427C34.0989 46.7208 33.8387 46.7924 33.5849 46.8639C33.5069 46.8835 33.4223 46.903 33.3377 46.9225C33.1425 46.968 32.9538 47.0136 32.7521 47.0591C32.6675 47.0787 32.5829 47.0982 32.4919 47.1112C32.2446 47.1567 32.0039 47.2023 31.7501 47.2413C31.7241 47.2413 31.6981 47.2478 31.6721 47.2543C31.3988 47.2934 31.119 47.3324 30.8457 47.3584C30.7677 47.3649 30.6831 47.3714 30.5985 47.3845C30.3903 47.404 30.1756 47.417 29.9674 47.43C29.8828 47.43 29.7982 47.443 29.7201 47.443C29.4339 47.456 29.1476 47.4625 28.8613 47.4625C28.6726 47.4625 28.4904 47.456 28.3018 47.4495V53.7867C28.4904 53.7867 28.6726 53.7997 28.8613 53.7997C29.2582 53.7997 29.6486 53.7867 30.039 53.7672L30.065 53.7737Z" fill="#56BDBA" style="fill:#56BDBA;fill:color(display-p3 0.3373 0.7412 0.7294);fill-opacity:1;"/>
<path d="M28.3338 47.4562C26.7723 47.4106 25.2628 47.1699 23.8249 46.76C23.5386 46.6819 23.2589 46.5908 22.9791 46.4997C22.9791 46.4997 22.9726 46.4997 22.9661 46.4997C22.6928 46.4086 22.4195 46.3045 22.1463 46.2004C22.1398 46.2004 22.1332 46.2004 22.1202 46.1939C21.8535 46.0898 21.5932 45.9792 21.333 45.8621C21.32 45.8621 21.3069 45.8491 21.3004 45.8491C21.0467 45.732 20.7929 45.6149 20.5457 45.4847C20.5327 45.4782 20.5132 45.4652 20.5002 45.4587C20.2529 45.3351 20.0122 45.205 19.7779 45.0683C19.7584 45.0553 19.7389 45.0423 19.7194 45.0358C19.4852 44.9057 19.2574 44.7625 19.0297 44.6194C19.0037 44.6064 18.9777 44.5869 18.9581 44.5738C18.7369 44.4307 18.5222 44.2876 18.3075 44.1379C18.2815 44.1184 18.2489 44.0989 18.2229 44.0794C18.0147 43.9297 17.8065 43.7801 17.6048 43.6239C17.5723 43.5979 17.5398 43.5719 17.5072 43.5458C17.312 43.3962 17.1168 43.24 16.9282 43.0774C16.8891 43.0448 16.8501 43.0123 16.8175 42.9798C16.6354 42.8236 16.4532 42.661 16.2775 42.4983C16.2385 42.4593 16.1929 42.4202 16.1539 42.3812C15.9847 42.2185 15.8156 42.0559 15.6529 41.8932C15.6074 41.8477 15.5618 41.7956 15.5163 41.7501C15.3601 41.5874 15.204 41.4248 15.0543 41.2556C15.0023 41.2035 14.9567 41.145 14.9112 41.0864C14.768 40.9238 14.6249 40.7546 14.4883 40.5854C14.4362 40.5204 14.3907 40.4553 14.3386 40.3902C14.2085 40.2276 14.0784 40.0584 13.9547 39.8893C13.9027 39.8177 13.8506 39.7461 13.7986 39.668C13.6815 39.5054 13.5644 39.3362 13.4538 39.1671C13.4017 39.0825 13.3497 39.0044 13.2976 38.9198C13.1935 38.7572 13.0894 38.5945 12.9853 38.4253C12.9332 38.3342 12.8812 38.2431 12.8291 38.1456C12.7381 37.9829 12.6405 37.8202 12.5559 37.6576C12.5038 37.56 12.4518 37.4559 12.3997 37.3518C12.3151 37.1891 12.2371 37.033 12.159 36.8638C12.1069 36.7532 12.0614 36.6426 12.0093 36.532C11.9378 36.3693 11.8662 36.2132 11.7946 36.0505C11.7426 35.9334 11.697 35.8098 11.6515 35.6861C11.5929 35.53 11.5279 35.3738 11.4693 35.2177C11.4238 35.0876 11.3782 34.9574 11.3327 34.8208C11.2806 34.6712 11.2286 34.515 11.183 34.3654C11.1375 34.2222 11.105 34.0856 11.0594 33.9424C11.0204 33.7928 10.9748 33.6431 10.9358 33.4935C10.8968 33.3439 10.8642 33.1877 10.8317 33.0381C10.7992 32.8949 10.7601 32.7518 10.7341 32.6021C10.7016 32.4395 10.6755 32.2768 10.6495 32.1142C10.6235 31.9775 10.5975 31.8409 10.5779 31.6977C10.5519 31.5221 10.5324 31.3399 10.5129 31.1642C10.4999 31.0341 10.4803 30.9105 10.4673 30.7803C10.4478 30.5786 10.4348 30.3704 10.4218 30.1622C10.4153 30.0581 10.4023 29.954 10.3958 29.8434C10.3827 29.5311 10.3697 29.2123 10.3697 28.9C10.3697 28.5877 10.3762 28.2689 10.3958 27.9566C10.3958 27.8525 10.4153 27.7484 10.4218 27.6378C10.4348 27.4296 10.4478 27.2279 10.4673 27.0197C10.4803 26.8895 10.4999 26.7659 10.5129 26.6358C10.5324 26.4601 10.5519 26.2779 10.5779 26.1023C10.5975 25.9656 10.6235 25.8225 10.6495 25.6859C10.6755 25.5232 10.7016 25.3605 10.7341 25.1979C10.7666 25.0547 10.7992 24.9116 10.8317 24.762C10.8642 24.6123 10.8968 24.4562 10.9358 24.3065C10.9748 24.1569 11.0204 24.0072 11.0594 23.8576C11.0984 23.7144 11.1375 23.5713 11.183 23.4347C11.2286 23.2785 11.2806 23.1289 11.3327 22.9792C11.3782 22.8491 11.4173 22.7124 11.4693 22.5823C11.5279 22.4262 11.5864 22.27 11.6515 22.1139C11.697 21.9902 11.7426 21.8731 11.7946 21.7495C11.8597 21.5868 11.9378 21.4307 12.0093 21.268C12.0614 21.1574 12.1069 21.0468 12.159 20.9362C12.2371 20.7736 12.3216 20.6109 12.3997 20.4547C12.4518 20.3506 12.5038 20.2465 12.5559 20.1489C12.647 19.9863 12.7381 19.8236 12.8291 19.661C12.8812 19.5699 12.9332 19.4723 12.9918 19.3812C13.0894 19.212 13.2 19.0494 13.3041 18.8867C13.3562 18.8021 13.4082 18.7175 13.4603 18.6395C13.5709 18.4703 13.688 18.3076 13.8051 18.1385C13.8571 18.0669 13.9092 17.9888 13.9613 17.9173C14.0849 17.7481 14.215 17.5854 14.3451 17.4163C14.3972 17.3512 14.4427 17.2861 14.4948 17.2211C14.6314 17.0519 14.7745 16.8892 14.9177 16.7266C14.9632 16.668 15.0153 16.616 15.0608 16.5574C15.2105 16.3883 15.3666 16.2256 15.5228 16.0629C15.5683 16.0174 15.6139 15.9653 15.6594 15.9198C15.8221 15.7506 15.9912 15.588 16.1604 15.4318C16.1994 15.3928 16.245 15.3537 16.284 15.3147C16.4597 15.152 16.6419 14.9894 16.8241 14.8332C16.8631 14.8007 16.9021 14.7682 16.9412 14.7356C17.1299 14.573 17.325 14.4233 17.5202 14.2672C17.5528 14.2412 17.5853 14.2151 17.6243 14.1891C17.826 14.033 18.0342 13.8833 18.2424 13.7337C18.2685 13.7141 18.301 13.6946 18.327 13.6686C18.5417 13.519 18.7564 13.3758 18.9777 13.2327C19.0037 13.2197 19.0297 13.2001 19.0492 13.1871C19.277 13.044 19.5047 12.9074 19.7389 12.7707C19.7584 12.7577 19.7779 12.7447 19.7975 12.7382C20.0382 12.6016 20.2789 12.4714 20.5197 12.3478C20.5327 12.3413 20.5522 12.3283 20.5652 12.3218C20.8125 12.1982 21.0662 12.0745 21.32 11.9574C21.333 11.9574 21.346 11.9444 21.3525 11.9444C21.6127 11.8273 21.873 11.7167 22.1398 11.6126C22.1463 11.6126 22.1593 11.6061 22.1658 11.5996C22.4325 11.4955 22.7058 11.3914 22.9856 11.3003H22.9986C23.2784 11.2092 23.5581 11.1181 23.8444 11.04C24.1307 10.9554 24.4235 10.8839 24.7163 10.8188C25.8874 10.5455 27.1041 10.3829 28.3533 10.3503V4.01965C28.3533 4.01965 28.3273 4.01965 28.3078 4.01965C27.9044 4.02616 27.4945 4.04568 27.0976 4.07821C27.0781 4.07821 27.0586 4.07821 27.0456 4.07821C26.6422 4.11074 26.2388 4.14978 25.8419 4.19533C25.8224 4.19533 25.8093 4.19533 25.7898 4.20183C25.3929 4.25388 24.9961 4.31244 24.6057 4.3775C24.5796 4.3775 24.5601 4.38401 24.5341 4.39052C24.1502 4.46209 23.7663 4.53366 23.389 4.62475C23.3564 4.63125 23.3239 4.64426 23.2849 4.65077C22.9205 4.73535 22.5562 4.82644 22.1918 4.93054C22.1398 4.94356 22.0877 4.96308 22.0291 4.97609C21.6908 5.07368 21.3525 5.17779 21.0142 5.2884C20.9231 5.32093 20.832 5.35346 20.7409 5.38599C20.4481 5.49009 20.1553 5.59419 19.8625 5.7048C19.4787 5.85445 19.1013 6.0106 18.7304 6.17977C18.7239 6.17977 18.7109 6.18627 18.7044 6.19278C18.4897 6.29038 18.275 6.38797 18.0603 6.49207C18.0147 6.51159 17.9757 6.53762 17.9301 6.55714C17.748 6.64823 17.5723 6.73281 17.3966 6.8304C17.1754 6.94752 16.9542 7.06463 16.7395 7.18825C16.4011 7.37694 16.0628 7.57864 15.731 7.78684C15.7245 7.78684 15.7115 7.79985 15.705 7.79985C15.3796 8.00155 15.0608 8.21626 14.7485 8.43097C14.7355 8.44398 14.716 8.45049 14.703 8.4635C14.3972 8.67821 14.0914 8.89943 13.7986 9.12715C13.7791 9.14667 13.753 9.15968 13.7335 9.1792C13.4472 9.40042 13.161 9.62814 12.8812 9.86237C12.8552 9.8884 12.8226 9.91442 12.7966 9.93394C12.5298 10.1617 12.2631 10.3959 12.0028 10.6366C11.9638 10.6692 11.9313 10.7017 11.8987 10.7407C11.6515 10.975 11.4042 11.2157 11.1635 11.4564C11.118 11.502 11.0789 11.541 11.0399 11.5866C10.8122 11.8273 10.5844 12.068 10.3632 12.3088C10.3177 12.3608 10.2656 12.4194 10.2201 12.4714C10.0119 12.7122 9.80368 12.9529 9.60198 13.2001C9.54993 13.2652 9.49788 13.3368 9.44583 13.4018C9.25715 13.6426 9.06846 13.8833 8.87978 14.1305C8.82122 14.2086 8.76917 14.2932 8.71061 14.3713C8.53494 14.612 8.36577 14.8528 8.20311 15.1C8.14456 15.1911 8.086 15.2887 8.02094 15.3798C7.86478 15.6205 7.71514 15.8547 7.56549 16.0955C7.50043 16.1996 7.44187 16.3102 7.37681 16.4208C7.24017 16.655 7.10354 16.8892 6.97341 17.13C6.90835 17.2536 6.84979 17.3772 6.78473 17.5008C6.66761 17.7286 6.54399 17.9628 6.43338 18.1905C6.36832 18.3272 6.30976 18.4638 6.2447 18.6004C6.1406 18.8281 6.03649 19.0494 5.9389 19.2771C5.87383 19.4267 5.82178 19.5829 5.75672 19.7325C5.67214 19.9537 5.58105 20.1685 5.49646 20.3962C5.43791 20.5588 5.38586 20.728 5.3273 20.8972C5.25573 21.1119 5.17765 21.3266 5.11259 21.5413C5.05403 21.7235 5.00849 21.9057 4.95644 22.0878C4.89788 22.296 4.83282 22.5042 4.78076 22.7124C4.72871 22.9076 4.68968 23.1093 4.64413 23.311C4.59859 23.5127 4.54653 23.7079 4.5075 23.9096C4.46195 24.1243 4.42942 24.339 4.39038 24.5538C4.35785 24.7424 4.31881 24.9311 4.28628 25.1263C4.25375 25.3605 4.22772 25.5948 4.19519 25.829C4.17567 26.0047 4.14314 26.1868 4.13013 26.3625C4.1041 26.6293 4.08458 26.9025 4.06506 27.1758C4.05205 27.3255 4.03904 27.4686 4.03253 27.6117C4.01301 28.0347 4 28.4576 4 28.8805C4 29.3034 4.01301 29.7328 4.03253 30.1492C4.03904 30.2989 4.05856 30.442 4.06506 30.5852C4.08458 30.8584 4.0976 31.1317 4.13013 31.3984C4.14965 31.5806 4.17567 31.7563 4.19519 31.932C4.22122 32.1662 4.24724 32.4004 4.28628 32.6282C4.31881 32.8233 4.35134 33.012 4.39038 33.2007C4.42942 33.4154 4.46195 33.6301 4.5075 33.8448C4.54653 34.0465 4.59859 34.2417 4.64413 34.4434C4.68968 34.6386 4.72871 34.8403 4.78076 35.0355C4.83282 35.2437 4.89788 35.4519 4.95644 35.6601C5.00849 35.8423 5.05403 36.0245 5.11259 36.2067C5.17765 36.4214 5.25573 36.6361 5.3273 36.8508C5.38586 37.02 5.43791 37.1891 5.49646 37.3518C5.57454 37.573 5.66563 37.7942 5.75672 38.0154C5.81528 38.1651 5.87383 38.3212 5.9389 38.4709C6.03649 38.6986 6.1406 38.9263 6.2447 39.1475C6.30976 39.2842 6.36832 39.4208 6.43338 39.5574C6.54399 39.7917 6.66761 40.0194 6.78473 40.2536C6.84979 40.3772 6.90835 40.5009 6.97341 40.6245C7.10354 40.8652 7.24017 41.0994 7.37681 41.3337C7.44187 41.4443 7.50043 41.5484 7.56549 41.659C7.70863 41.8997 7.86478 42.1405 8.02094 42.3812C8.07949 42.4723 8.13805 42.5699 8.20311 42.661C8.36577 42.9082 8.54145 43.1489 8.71061 43.3897C8.76917 43.4678 8.82122 43.5458 8.87978 43.6304C9.06195 43.8777 9.25064 44.1184 9.44583 44.3591C9.49788 44.4242 9.54993 44.4958 9.60198 44.5608C9.80368 44.8081 10.0119 45.0488 10.2201 45.2895C10.2656 45.3416 10.3177 45.4002 10.3632 45.4522C10.5844 45.6994 10.8122 45.9402 11.0399 46.1744C11.0789 46.22 11.1245 46.2655 11.1635 46.3045C11.4042 46.5518 11.6515 46.786 11.8987 47.0202C11.9313 47.0528 11.9703 47.0853 12.0028 47.1243C12.2631 47.3651 12.5298 47.5993 12.7966 47.827C12.8226 47.8531 12.8552 47.8791 12.8812 47.8986C13.161 48.1328 13.4472 48.3606 13.7335 48.5818C13.753 48.5948 13.7726 48.6143 13.7986 48.6338C14.0979 48.8615 14.3972 49.0828 14.703 49.2975C14.716 49.3105 14.7355 49.317 14.7485 49.33C15.0608 49.5512 15.3796 49.7594 15.705 49.9611C15.7115 49.9611 15.7245 49.9741 15.731 49.9741C16.0628 50.1823 16.4011 50.384 16.7395 50.5727C16.9542 50.6963 17.1754 50.8135 17.3966 50.9306C17.5723 51.0217 17.7415 51.1062 17.9171 51.1973C17.9627 51.2234 18.0147 51.2429 18.0603 51.2689C18.2685 51.3665 18.4767 51.4641 18.6849 51.5617C18.6979 51.5682 18.7174 51.5747 18.7304 51.5812C19.1013 51.7504 19.4787 51.9065 19.8625 52.0562C20.1488 52.1668 20.4416 52.2709 20.7344 52.375C20.8255 52.4075 20.9166 52.4466 21.0142 52.4726C21.346 52.5832 21.6843 52.6873 22.0226 52.7849C22.0747 52.7979 22.1332 52.8174 22.1853 52.8369C22.5431 52.941 22.9075 53.0321 23.2719 53.1167C23.3044 53.1232 23.3434 53.1362 23.376 53.1427C23.7533 53.2273 24.1372 53.3054 24.5211 53.377C24.5471 53.377 24.5666 53.3835 24.5927 53.39C24.983 53.4615 25.3799 53.5201 25.7768 53.5656C25.7963 53.5656 25.8159 53.5656 25.8289 53.5722C26.2258 53.6242 26.6292 53.6632 27.0325 53.6893C27.0521 53.6893 27.0651 53.6893 27.0846 53.6893C27.488 53.7153 27.8914 53.7348 28.3013 53.7478C28.3143 53.7478 28.3273 53.7478 28.3403 53.7478V47.4106L28.3338 47.4562Z" fill="#008C9B" style="fill:#008C9B;fill:color(display-p3 0.0000 0.5490 0.6078);fill-opacity:1;"/>
</svg>
